<?xml version="1.0" standalone="no"?>
<!DOCTYPE svg PUBLIC "-//W3C//DTD SVG 20010904//EN"
 "http://www.w3.org/TR/2001/REC-SVG-20010904/DTD/svg10.dtd">
<svg version="1.0" xmlns="http://www.w3.org/2000/svg"
 width="512.000000pt" height="512.000000pt" viewBox="0 0 512.000000 512.000000"
 preserveAspectRatio="xMidYMid meet">

<g transform="translate(0.000000,512.000000) scale(0.100000,-0.100000)"
fill="#000000" stroke="none">
<path d="M1027 5110 c-126 -32 -231 -136 -266 -265 -22 -82 -73 -510 -68 -571
9 -123 88 -238 200 -294 33 -16 66 -30 74 -30 10 0 13 -24 13 -103 l0 -102
-35 -19 c-47 -25 -137 -122 -165 -175 -32 -63 -53 -175 -45 -241 4 -30 146
-506 316 -1057 170 -552 309 -1006 309 -1009 0 -3 19 11 42 31 120 102 299
127 443 61 58 -26 160 -115 170 -147 9 -26 19 -24 56 13 47 48 95 126 120 199
19 53 22 84 22 184 -1 185 -35 284 -177 520 -233 386 -376 767 -476 1264 -17
85 -40 175 -51 200 -63 144 -213 230 -376 218 l-73 -5 0 78 0 78 48 7 c137 19
267 132 301 260 21 81 73 511 69 576 -7 128 -93 250 -216 307 -62 28 -169 38
-235 22z"/>
<path d="M3065 1429 c-440 -59 -804 -108 -810 -109 -5 0 -23 -25 -39 -56 -17
-31 -55 -83 -85 -115 l-56 -58 0 -118 c0 -112 -2 -121 -32 -185 -64 -136 -191
-224 -338 -235 l-75 -6 0 -83 0 -84 1248 0 1248 0 45 28 c96 61 197 215 235
357 20 79 29 291 16 378 -15 93 -60 186 -124 253 -96 101 -201 145 -346 143
-48 -1 -447 -50 -887 -110z"/>
<path d="M1594 1289 c-106 -25 -210 -124 -240 -228 -21 -69 -15 -169 14 -233
28 -65 91 -129 159 -163 50 -25 69 -29 143 -29 66 0 96 5 132 21 71 32 141
103 173 174 25 56 27 70 23 148 -5 98 -25 146 -89 216 -71 77 -211 119 -315
94z"/>
<path d="M1632 235 c9 -105 70 -187 165 -221 50 -18 2108 -21 2178 -3 56 14
131 79 156 134 11 23 19 64 19 98 l0 57 -1261 0 -1262 0 5 -65z"/>
</g>
</svg>
